<?xml version="1.0" encoding="utf-8"?>
<!-- Generator: Adobe Illustrator 21.0.0, SVG Export Plug-In . SVG Version: 6.00 Build 0)  -->
<svg version="1.1" id="Layer_1" xmlns="http://www.w3.org/2000/svg" xmlns:xlink="http://www.w3.org/1999/xlink" x="0px" y="0px"
	 viewBox="0 0 750 750" enable-background="new 0 0 750 750" xml:space="preserve">
<linearGradient id="SVGID_1_" gradientUnits="userSpaceOnUse" x1="375.25" y1="67.7499" x2="375.25" y2="683.5">
	<stop  offset="1.064676e-02" style="stop-color:#FFFFCC"/>
	<stop  offset="8.139965e-02" style="stop-color:#FFFAC3"/>
	<stop  offset="0.1985" style="stop-color:#FFEBAA"/>
	<stop  offset="0.3463" style="stop-color:#FFD481"/>
	<stop  offset="0.4838" style="stop-color:#FFBB55"/>
	<stop  offset="0.6174" style="stop-color:#E89C4D"/>
	<stop  offset="0.9082" style="stop-color:#AD4D3A"/>
	<stop  offset="1" style="stop-color:#993333"/>
</linearGradient>
<circle fill="url(#SVGID_1_)" stroke="#000000" stroke-width="35" stroke-miterlimit="10" cx="375.3" cy="372.3" r="337.3"/>
<linearGradient id="SVGID_2_" gradientUnits="userSpaceOnUse" x1="375.25" y1="91.342" x2="375.25" y2="788.0251">
	<stop  offset="0" style="stop-color:#FFEE77"/>
	<stop  offset="0.1332" style="stop-color:#FCDF72"/>
	<stop  offset="0.3904" style="stop-color:#F4B766"/>
	<stop  offset="0.7425" style="stop-color:#E77753"/>
	<stop  offset="1" style="stop-color:#DD4444"/>
</linearGradient>
<circle fill="url(#SVGID_2_)" cx="375.3" cy="372.3" r="309.6"/>
<linearGradient id="SVGID_3_" gradientUnits="userSpaceOnUse" x1="537.4318" y1="198.0768" x2="537.4318" y2="440.8214">
	<stop  offset="0" style="stop-color:#DDCC66"/>
	<stop  offset="0.2858" style="stop-color:#DDBD5E"/>
	<stop  offset="0.8355" style="stop-color:#DD954B"/>
	<stop  offset="1" style="stop-color:#DD8844"/>
</linearGradient>
<circle fill="url(#SVGID_3_)" cx="537.4" cy="316.3" r="130.3"/>
<g>
	<g>
		<circle fill="#004295" stroke="#000000" stroke-width="10" stroke-miterlimit="10" cx="536.2" cy="315.4" r="93.6"/>
		<circle fill="#0088FF" cx="536.2" cy="315.4" r="76.8"/>
		<circle fill="#00CCFF" cx="536.2" cy="315.4" r="66.4"/>
	</g>
	<path fill="#55FFFF" d="M494.3,336.1c0,4.6-8.4,6.2-13,6.2c-4.6,0-5.7-0.4-5.7-4.9c0-4.6,2.3-8.4,9.3-12.4
		C489,322.7,494.3,331.6,494.3,336.1z"/>
	<path fill="#55FFFF" d="M522.3,281.3c-1.6,4.3-14.1,18-18.7,18c-4.6,0-16-2-16-18c0-13.3,20.7-27.5,29-27.3
		C521.2,254.1,527,268.7,522.3,281.3z"/>
	<path fill="#00FFFF" d="M556.6,319.6c-12.3,0-21.5-10.1-22-22c-0.3-7,3.4-13.5,8.9-17.5c-1-0.1-2-0.1-3-0.1
		c-19.1,0-34.6,14.5-34.6,33.5c0,19.1,15.5,34.6,34.6,34.6s34.6-15.5,34.6-34.6c0-1.2-0.1-2.4-0.2-3.6
		C570.7,315.7,563.7,319.6,556.6,319.6z"/>
</g>
<linearGradient id="SVGID_4_" gradientUnits="userSpaceOnUse" x1="216" y1="198.0768" x2="216" y2="440.8214">
	<stop  offset="0" style="stop-color:#DDCC66"/>
	<stop  offset="0.2858" style="stop-color:#DDBD5E"/>
	<stop  offset="0.8355" style="stop-color:#DD954B"/>
	<stop  offset="1" style="stop-color:#DD8844"/>
</linearGradient>
<circle fill="url(#SVGID_4_)" cx="216" cy="316.3" r="130.3"/>
<g>
	<g>
		<circle fill="#004295" stroke="#000000" stroke-width="10" stroke-miterlimit="10" cx="216.2" cy="315.4" r="93.6"/>
		<circle fill="#0088FF" cx="216.2" cy="315.4" r="76.8"/>
		<circle fill="#00CCFF" cx="216.2" cy="315.4" r="66.4"/>
	</g>
	<path fill="#55FFFF" d="M174.3,336.1c0,4.6-8.4,6.2-13,6.2s-5.7-0.4-5.7-4.9c0-4.6,2.3-8.4,9.3-12.4
		C169,322.7,174.3,331.6,174.3,336.1z"/>
	<path fill="#55FFFF" d="M202.3,281.3c-1.6,4.3-14.1,18-18.7,18s-16-2-16-18c0-13.3,20.7-27.5,29-27.3
		C201.2,254.1,207,268.7,202.3,281.3z"/>
	<path fill="#00FFFF" d="M236.6,319.6c-12.3,0-21.5-10.1-22-22c-0.3-7,3.4-13.5,8.9-17.5c-1-0.1-2-0.1-3-0.1
		c-19.1,0-34.6,14.5-34.6,33.5c0,19.1,15.5,34.6,34.6,34.6s34.6-15.5,34.6-34.6c0-1.2-0.1-2.4-0.2-3.6
		C250.7,315.7,243.7,319.6,236.6,319.6z"/>
</g>
<circle fill="#776633" cx="313.4" cy="115.7" r="20.4"/>
<circle fill="#776633" cx="436.1" cy="115.7" r="20.4"/>
<circle fill="#663322" cx="313.4" cy="623.7" r="20.4"/>
<circle fill="#663322" cx="436.1" cy="623.7" r="20.4"/>
<line opacity="0.2" fill="none" stroke="#000000" stroke-width="22" stroke-miterlimit="10" x1="375.3" y1="48.7" x2="375.3" y2="714"/>
<line fill="none" stroke="#000000" stroke-width="12" stroke-miterlimit="10" x1="375.3" y1="48.7" x2="375.3" y2="714"/>
</svg>
